<?xml version="1.0" encoding="UTF-8" standalone="no"?>
<svg
   viewBox="-47.24 -12.26 94.48 24.52"
   width="945"
   height="245"
   version="1.1"
   id="svg25"
   sodipodi:docname="camengine-text-shape.svg"
   inkscape:version="1.4.2 (f4327f4, 2025-05-13)"
   xmlns:inkscape="http://www.inkscape.org/namespaces/inkscape"
   xmlns:sodipodi="http://sodipodi.sourceforge.net/DTD/sodipodi-0.dtd"
   xmlns="http://www.w3.org/2000/svg"
   xmlns:svg="http://www.w3.org/2000/svg">
  <defs
     id="defs25">
    <rect
       x="-29.797297"
       y="-10.641892"
       width="2270.9798"
       height="542.73649"
       id="rect27" />
    <rect
       x="14.898649"
       y="17.027027"
       width="904.56081"
       height="210.70946"
       id="rect25" />
  </defs>
  <sodipodi:namedview
     id="namedview25"
     pagecolor="#ffffff"
     bordercolor="#000000"
     borderopacity="0.25"
     inkscape:showpageshadow="2"
     inkscape:pageopacity="0.0"
     inkscape:pagecheckerboard="0"
     inkscape:deskcolor="#d1d1d1"
     inkscape:zoom="0.46984127"
     inkscape:cx="258.59797"
     inkscape:cy="109.61149"
     inkscape:window-width="1920"
     inkscape:window-height="1009"
     inkscape:window-x="-8"
     inkscape:window-y="-8"
     inkscape:window-maximized="1"
     inkscape:current-layer="svg25" />
  <text
     xml:space="preserve"
     transform="matrix(0.10008163,0,0,0.10008163,-47.288571,-12.26)"
     id="text25"
     style="fill:#1a1a1a;text-orientation:auto;font-size:13.33333333px;-inkscape-font-specification:'Courier New Bold';font-family:'Courier New';font-weight:bold;stroke-width:0.37795276;text-align:start;writing-mode:lr-tb;direction:ltr;white-space:pre;shape-inside:url(#rect25)" />
  <text
     xml:space="preserve"
     style="font-weight:bold;font-size:1.33442px;font-family:'Courier New';-inkscape-font-specification:'Courier New Bold';text-align:start;writing-mode:lr-tb;direction:ltr;text-anchor:start;fill:#1a1a1a;stroke-width:0.0378262"
     x="13.632743"
     y="-3.100502"
     id="text26"><tspan
       sodipodi:role="line"
       id="tspan26"
       x="13.632743"
       y="-3.100502"
       style="stroke-width:0.0378261"></tspan></text>
  <path
     d="m -37.704938,-5.0876215 q 0.140269,-0.1919477 0.302687,-0.2879215 0.169799,-0.095974 0.361747,-0.095974 0.332216,0 0.53893,0.2288607 0.214095,0.2288606 0.214095,0.7751731 v 1.2845727 q 0,0.5463125 -0.214095,0.7825558 -0.206714,0.2288606 -0.53893,0.2288606 -0.302687,0 -0.487252,-0.1697998 -0.184565,-0.1697999 -0.273156,-0.6349038 -0.05168,-0.3100692 -0.206714,-0.4798691 -0.302686,-0.332217 -0.848998,-0.5315473 -0.53893,-0.1993302 -1.085242,-0.1993302 -0.6792,0 -1.24766,0.295304 -0.56846,0.2953041 -1.004034,0.9597382 -0.435574,0.6644342 -0.435574,1.5798767 v 0.98188597 q 0,1.09262501 0.789939,1.82350263 0.797321,0.7308775 2.207397,0.7308775 0.841617,0 1.424842,-0.2288606 0.3396,-0.1328869 0.723496,-0.5241647 0.236243,-0.2362433 0.36913,-0.3026867 0.132887,-0.073826 0.302686,-0.073826 0.302687,0 0.531548,0.2288606 0.22886,0.2288607 0.22886,0.5389299 0,0.3100693 -0.310069,0.6644342 -0.450339,0.516782 -1.159068,0.8120861 -0.952356,0.3986605 -2.104042,0.3986605 -1.343634,0 -2.421493,-0.5536951 -0.871147,-0.4429561 -1.483903,-1.3953117 -0.612756,-0.95973822 -0.612756,-2.08927627 V -1.36679 q 0,-1.1812163 0.546313,-2.2000154 0.553694,-1.0261815 1.528198,-1.5798766 0.974504,-0.5536952 2.067129,-0.5536952 0.657051,0 1.225511,0.1550347 0.575843,0.147652 1.070478,0.457721 z m 8.0618,8.5638177 V 3.1218313 q -0.56846,0.3026866 -1.255043,0.4503387 -0.686581,0.1550347 -1.247659,0.1550347 -1.218128,0 -1.978536,-0.6422864 -0.760408,-0.6496689 -0.760408,-1.4322247 0,-0.95235563 0.96712,-1.76444179 0.974504,-0.81946872 2.687267,-0.81946872 0.686582,0 1.587259,0.14765199 V -1.1453123 q 0,-0.3395996 -0.295304,-0.5536951 -0.287921,-0.2140955 -1.10739,-0.2140955 -0.671817,0 -1.742293,0.2657737 -0.398661,0.095974 -0.620139,0.095974 -0.302687,0 -0.516782,-0.2140955 -0.206713,-0.221478 -0.206713,-0.5610777 0,-0.1919476 0.07382,-0.332217 0.07382,-0.1402694 0.206714,-0.2214781 0.132886,-0.088591 0.553694,-0.2067128 0.561078,-0.1550347 1.144303,-0.2436258 0.583225,-0.095974 1.055712,-0.095974 1.410077,0 2.18525,0.612756 0.782555,0.6053733 0.782555,1.6610853 V 1.962763 h 0.258392 q 0.546312,0 0.775173,0.2140954 0.236243,0.2067128 0.236243,0.5463125 0,0.3322171 -0.236243,0.5463126 -0.228861,0.2067128 -0.775173,0.2067128 z m 0,-2.7094148 q -0.90806,-0.17718238 -1.675851,-0.17718238 -0.922824,0 -1.587258,0.45033868 -0.413426,0.2879215 -0.413426,0.5832255 0,0.2140955 0.19933,0.3469822 0.369131,0.2436259 1.011416,0.2436259 0.546313,0 1.232894,-0.2140954 0.693965,-0.2140955 1.232895,-0.5832256 z m 5.374534,-3.9939873 v 0.4281909 q 0.36913,-0.3617475 0.664434,-0.4946344 0.302687,-0.1402694 0.693964,-0.1402694 0.332218,0 0.657052,0.1624172 0.324834,0.1624173 0.634904,0.4872517 0.391277,-0.3248344 0.789938,-0.479869 0.406044,-0.1624173 0.826852,-0.1624173 0.841616,0 1.365781,0.4503387 0.693965,0.5906082 0.693965,1.5503463 v 3.3886141 q 0.472486,0 0.701347,0.2140954 0.22886,0.2140955 0.22886,0.5463125 0,0.3322171 -0.22886,0.5463126 -0.228861,0.2067128 -0.775174,0.2067128 h -1.439607 v -4.7765431 q 0,-0.3469823 -0.125504,-0.4798691 -0.125504,-0.1328869 -0.383895,-0.1328869 -0.251009,0 -0.465105,0.1328869 -0.273155,0.184565 -0.664433,0.6939645 v 3.0490144 q 0.472486,0 0.701347,0.2140954 0.228861,0.2140955 0.228861,0.5463125 0,0.3322171 -0.228861,0.5463126 -0.228861,0.2067128 -0.775174,0.2067128 h -1.439607 v -4.7765431 q 0,-0.3395997 -0.132886,-0.4724865 -0.125505,-0.1402695 -0.383896,-0.1402695 -0.265774,0 -0.524165,0.1697998 -0.258391,0.1624173 -0.620138,0.6570516 v 3.0490144 q 0.472487,0 0.701347,0.2140954 0.236243,0.2140955 0.236243,0.5463125 0,0.3322171 -0.236243,0.5463126 -0.22886,0.2067128 -0.775173,0.2067128 h -1.365781 q -0.546313,0 -0.775174,-0.2067128 -0.236243,-0.2140955 -0.236243,-0.5536951 0,-0.3322172 0.228861,-0.53893 0.22886,-0.2140954 0.708729,-0.2140954 v -3.6765355 q -0.479869,0 -0.708729,-0.2140955 -0.228861,-0.2140954 -0.228861,-0.5463124 0,-0.3322172 0.236243,-0.53893 0.228861,-0.2140954 0.775174,-0.2140954 z m 18.9289905,2.96780572 V 1.9627629 h 3.8611006 V 1.1432941 q 0,-0.54631251 0.2067128,-0.77517317 0.2140954,-0.23624323 0.55369512,-0.23624323 0.33221704,0 0.53892988,0.23624323 0.21409551,0.22886066 0.21409551,0.77517317 V 3.4761962 H -7.0892901 q -0.5463129,0 -0.7825558,-0.2067128 -0.2288604,-0.2140955 -0.2288604,-0.5536951 0,-0.3322172 0.2362428,-0.53893 0.2362438,-0.2140954 0.7751734,-0.2140954 h 0.2362432 v -5.9208464 h -0.2362432 q -0.5463129,0 -0.7825558,-0.2067128 -0.2288604,-0.2140955 -0.2288604,-0.5536951 0,-0.3395997 0.2288604,-0.5463125 0.2362429,-0.2140955 0.7825558,-0.2140955 l 6.79199339,0.00739 v 2.3033717 q 0,0.5389299 -0.20671285,0.7751731 -0.20671285,0.2288607 -0.54631244,0.2288607 -0.3395997,0 -0.5536951,-0.2288607 Q -1.81073,-2.6218291 -1.81073,-3.1681416 v -0.7899419 h -3.5288835 v 2.1852501 h 1.3288682 q 0,-0.5906081 0.110739,-0.760408 0.2288607,-0.3617474 0.6496689,-0.3617474 0.3322171,0 0.53893,0.2362432 0.2140954,0.2288607 0.2140954,0.7751731 v 1.74229393 q 0,0.49463426 -0.1181216,0.66443417 -0.2362432,0.34698227 -0.6349038,0.34698227 -0.4208082,0 -0.6496689,-0.36174751 -0.110739,-0.16979981 -0.110739,-0.76779054 z M 3.7557516,-3.2272059 v 0.5093995 q 0.4134257,-0.3543649 0.9080599,-0.5315473 0.502017,-0.1771825 1.0852424,-0.1771825 1.3436331,0 2.1261893,0.834234 0.6201381,0.6644341 0.6201381,1.74229386 V 1.9627629 q 0.4798699,0 0.7087304,0.2140954 0.2288604,0.2067128 0.2288604,0.5463125 0,0.3322171 -0.2362437,0.5463126 Q 8.9678679,3.4761962 8.4215555,3.4761962 H 7.0557742 q -0.5463124,0 -0.7825552,-0.2067128 -0.2288614,-0.2140955 -0.2288614,-0.5536951 0,-0.3322172 0.2288614,-0.53893 0.2288604,-0.2140954 0.7087295,-0.2140954 v -2.85706686 q 0,-0.49463414 -0.2657734,-0.72349484 -0.3469823,-0.2953041 -1.0409471,-0.2953041 -0.5241648,0 -0.9228252,0.2067129 -0.3912779,0.1993303 -0.9966512,0.85638166 V 1.9627629 q 0.5832255,0 0.7530253,0.110739 0.3617475,0.221478 0.3617475,0.6496689 0,0.3322171 -0.2362433,0.5463126 Q 4.4054205,3.4761962 3.8591079,3.4761962 H 2.1389617 q -0.5463124,0 -0.7825557,-0.2067128 -0.2288607,-0.2140955 -0.2288607,-0.5536951 0,-0.4134257 0.354365,-0.6422864 0.1771823,-0.110739 0.7604079,-0.110739 v -3.6765355 q -0.4798691,0 -0.7087298,-0.2140955 -0.2288606,-0.2140954 -0.2288606,-0.5463124 0,-0.3322172 0.2288606,-0.53893 0.2362433,-0.2140954 0.7825558,-0.2140954 z m 12.2698834,0.4503387 v -0.4503387 h 1.771825 q 0.546312,0 0.775173,0.2140954 0.236243,0.2067128 0.236243,0.5463125 0,0.3322171 -0.236243,0.5463126 -0.228861,0.2067128 -0.775173,0.2067128 H 17.539068 V 3.793648 q 0,0.797321 -0.339599,1.3879292 -0.332218,0.5979906 -1.026181,1.0261815 -0.693965,0.428191 -1.565113,0.428191 h -1.712763 q -0.546313,0 -0.782556,-0.2140955 -0.22886,-0.2067129 -0.22886,-0.5389299 0,-0.3395997 0.22886,-0.5536951 0.236243,-0.2067129 0.782556,-0.2067129 h 1.668468 q 0.693965,0 1.07786,-0.3765126 0.383895,-0.3765128 0.383895,-0.9523557 V 3.0553879 q -0.502017,0.3248344 -1.026181,0.4872517 -0.516783,0.1624173 -1.063095,0.1624173 -1.542964,0 -2.583911,-1.0261817 -1.040946,-1.0335642 -1.040946,-2.5469975 0,-1.5208158 1.040946,-2.5469975 1.040947,-1.0335641 2.583911,-1.0335641 0.575842,0 1.092625,0.1697998 0.524165,0.1624172 0.996651,0.5020169 z m -0.0074,2.90136224 q 0,-0.83423396 -0.620139,-1.44698974 -0.612756,-0.612756 -1.47652,-0.612756 -0.863764,0 -1.483903,0.612756 -0.612756,0.61275578 -0.612756,1.44698974 0,0.84161663 0.612756,1.45437246 0.620139,0.6053734 1.483903,0.6053734 0.863764,0 1.47652,-0.6053734 0.620139,-0.61275583 0.620139,-1.45437246 z m 7.958444,-6.22353294 v 1.6020245 h -1.801347 v -1.6020245 z m 0.206714,2.871832 v 5.1899688 h 1.81612 q 0.546312,0 0.775173,0.2140954 0.236242,0.2067128 0.236242,0.5463125 0,0.3322171 -0.236242,0.5463126 -0.228861,0.2067128 -0.775173,0.2067128 h -5.145674 q -0.546312,0 -0.782556,-0.2067128 -0.22886,-0.2140955 -0.22886,-0.5536951 0,-0.3322172 0.22886,-0.53893 0.236244,-0.2140954 0.782556,-0.2140954 h 1.81612 v -3.6765355 h -1.218122 q -0.53893,0 -0.775173,-0.2067128 -0.236243,-0.2140955 -0.236243,-0.5536951 0,-0.3322172 0.22886,-0.53893 0.236244,-0.2140954 0.782556,-0.2140954 z m 6.791993,0 v 0.5093995 q 0.413425,-0.3543649 0.908059,-0.5315473 0.502017,-0.1771825 1.085244,-0.1771825 1.343633,0 2.126188,0.834234 0.620139,0.6644341 0.620139,1.74229386 V 1.9627629 q 0.479869,0 0.70873,0.2140954 0.228859,0.2067128 0.228859,0.5463125 0,0.3322171 -0.236242,0.5463126 -0.22886,0.2067128 -0.775173,0.2067128 h -1.365781 q -0.546313,0 -0.782556,-0.2067128 -0.228861,-0.2140955 -0.228861,-0.5536951 0,-0.3322172 0.228861,-0.53893 0.22886,-0.2140954 0.708729,-0.2140954 v -2.85706686 q 0,-0.49463414 -0.265773,-0.72349484 -0.346982,-0.2953041 -1.040947,-0.2953041 -0.524164,0 -0.922825,0.2067129 -0.391278,0.1993303 -0.996651,0.85638166 V 1.9627629 q 0.583225,0 0.753025,0.110739 0.361748,0.221478 0.361748,0.6496689 0,0.3322171 -0.236243,0.5463126 -0.228862,0.2067128 -0.775174,0.2067128 H 29.35861 q -0.546312,0 -0.782555,-0.2067128 -0.228862,-0.2140955 -0.228862,-0.5536951 0,-0.4134257 0.354365,-0.6422864 0.177183,-0.110739 0.760408,-0.110739 v -3.6765355 q -0.479869,0 -0.708729,-0.2140955 -0.228861,-0.2140954 -0.228861,-0.5463124 0,-0.3322172 0.228861,-0.53893 0.236243,-0.2140954 0.782556,-0.2140954 z M 45.378854,0.89228567 H 39.17009 q 0.236243,0.59060803 0.83423,0.95235553 0.605373,0.3617476 1.631558,0.3617476 0.841617,0 2.236925,-0.3617476 0.575843,-0.1476519 0.797321,-0.1476519 0.30269,0 0.509404,0.2140954 0.206712,0.2140954 0.206712,0.5389299 0,0.295304 -0.221478,0.5020169 -0.295304,0.2731563 -1.439611,0.5241647 -1.144299,0.2436258 -2.200015,0.2436258 -1.81612,0 -2.908746,-1.0261816 -1.085237,-1.0261816 -1.085237,-2.52484975 0,-1.59464185 1.173829,-2.59129305 1.181216,-1.0040338 2.716797,-1.0040338 0.92283,0 1.69062,0.3248345 0.775169,0.3248345 1.151686,0.7013472 0.531547,0.5463125 0.878525,1.351016 0.236244,0.56107766 0.236244,1.29933782 z m -1.675847,-1.51343336 q -0.346986,-0.64966881 -0.908063,-0.96712071 -0.561079,-0.3248345 -1.336248,-0.3248345 -0.76779,0 -1.328868,0.3248345 -0.561077,0.3174519 -0.915443,0.96712071 z"
     id="text27"
     style="font-weight:bold;font-size:192px;font-family:'Courier New';-inkscape-font-specification:'Courier New Bold';white-space:pre;fill:none;stroke:#000000;stroke-width:0.0787477;stroke-dasharray:none"
     aria-label="Cam Engine" />
</svg>
